# xmcd
#
# Track frame offsets:
#	150
#	20486
#	38863
#	82443
#	101711
#	126079
#	160339
#	190964
#	213089
#	249402
#	279258
#	306216
#
# Disc length: 4529 seconds
#
# Revision: 1
# Processed by: cddbd v1.5.2PL0 Copyright (c) Steve Scherf et al.
# Submitted via: audiograbber 1.83.01
#
DISCID=a511af0c
DTITLE=Grateful Dead - 80-11-26 Sportatorium, Pembroke Pines FL
DYEAR=1900
DGENRE=
TTITLE0=Alabama Getaway
TTITLE1=Greatest Story Ever Told
TTITLE2=Friend Of The Devil
TTITLE3=On The Road Again
TTITLE4=Jack-A-Roe
TTITLE5=New Minglewood Blues
TTITLE6=It Must Have Been The Roses
TTITLE7=The Race Is On
TTITLE8=Althea
TTITLE9=Lost Sailor
TTITLE10=Saint Of Circumstance
TTITLE11=Deal
EXTD=
EXTT0=
EXTT1=
EXTT2=
EXTT3=
EXTT4=
EXTT5=
EXTT6=
EXTT7=
EXTT8=
EXTT9=
EXTT10=
EXTT11=
PLAYORDER=
